{"title":"Bill Bailey Cosmic Jam DVDrip x264 RB58.mp4","uid":10027554,"size":574798125,"categoryP":"video","categoryS":"movies","magnet":"?xt=urn:btih:7eb3c548b68422a8b73baaeedfcb157101f167c4&amp;dn=Bill+Bailey+Cosmic+Jam+DVDrip+x264+RB58.mp4&amp;tr=udp%3A%2F%2Ftracker.openbittorrent.com%3A80&amp;tr=udp%3A%2F%2Fopen.demonii.com%3A1337&amp;tr=udp%3A%2F%2Ftracker.coppersurfer.tk%3A6969&amp;tr=udp%3A%2F%2Fexodus.desync.com%3A6969","seeders":3,"leechers":1,"uploader":"RedBaron58","files":1,"time":1398288066,"description":"Bill Bailey Live 1997 Cosmic Jam DVDrip x264 \n &lt;a href=&quot;\nhttp://www.imdb.com/title/tt0492446/&quot; rel=&quot;nofollow&quot; target=&quot;_NEW&quot;&gt;\nhttp://www.imdb.com/title/tt0492446/&lt;/a&gt;\n\nPlease be patient My upload speed is limited, but I am online most the time and during the night.\nThank you for your kind comments and thumbs ups on my other torrents, your feedback is welcome.\n\n\nAbout the Episode:\nBill Bailey performing live at the Bloomsbury Theatre in London. DVD was released in 2005.\n\n\nI hope you enjoy.\n\n\nTechnical:\n\nGeneral\nComplete name                            : G:Bill Bailey Cosmic Jam DVDrip x264 RB58.mp4\nFormat                                   : MPEG-4\nFormat profile                           : Base Media / Version 2\nCodec ID                                 : mp42\nFile size                                : 548 MiB\nDuration                                 : 1h 19mn\nOverall bit rate mode                    : Variable\nOverall bit rate                         : 959 Kbps\nEncoded date                             : UTC 2014-04-23 14:36:13\nTagged date                              : UTC 2014-04-23 15:19:45\nWriting application                      : HandBrake 0.9.8 2012071700\n\nVideo\nID                                       : 1\nFormat                                   : AVC\nFormat/Info                              : Advanced Video Codec\nFormat profile                           : &lt;a class=&quot;__cf_email__&quot; href=&quot;/cdn-cgi/l/email-protection&quot; data-cfemail=&quot;612c00080f212d524f51&quot;&gt;[email&amp;#160;protected]&lt;/a&gt;&lt;script cf-hash='f9e31' type=&quot;text/javascript&quot;&gt;\n/* &lt;![CDATA[ */!function(){try{var t=&quot;currentScript&quot;in document?document.currentScript:function(){for(var t=document.getElementsByTagName(&quot;script&quot;),e=t.length;e--;)if(t[e].getAttribute(&quot;cf-hash&quot;))return t[e]}();if(t&amp;&amp;t.previousSibling){var e,r,n,i,c=t.previousSibling,a=c.getAttribute(&quot;data-cfemail&quot;);if(a){for(e=&quot;&quot;,r=parseInt(a.substr(0,2),16),n=2;a.length-n;n+=2)i=parseInt(a.substr(n,2),16)^r,e+=String.fromCharCode(i);e=document.createTextNode(e),c.parentNode.replaceChild(e,c)}}}catch(u){}}();/* ]]&gt; */&lt;/script&gt;\nFormat settings, CABAC                   : Yes\nFormat settings, ReFrames                : 4 frames\nCodec ID                                 : avc1\nCodec ID/Info                            : Advanced Video Coding\nDuration                                 : 1h 19mn\nBit rate mode                            : Variable\nBit rate                                 : 800 Kbps\nWidth                                    : 698 pixels\nHeight                                   : 546 pixels\nDisplay aspect ratio                     : 4:3\nFrame rate mode                          : Variable\nFrame rate                               : 25.000 fps\nMinimum frame rate                       : 8.333 fps\nMaximum frame rate                       : 25.000 fps\nColor space                              : YUV\nChroma subsampling                       : 4:2:0\nBit depth                                : 8 bits\nScan type                                : Progressive\nBits/(Pixel*Frame)                       : 0.084\nStream size                              : 457 MiB (83%)\nWriting library                          : x264 core 120\nEncoding settings                        : cabac=1 / ref=1 / deblock=1:0:0\nEncoded date                             : UTC 2014-04-23 14:36:13\nTagged date                              : UTC 2014-04-23 15:19:45\nColor primaries                          : BT.601 NTSC\nTransfer characteristics                 : BT.709\nMatrix coefficients                      : BT.601\n\nAudio\nID                                       : 2\nFormat                                   : MPEG Audio\nFormat version                           : Version 1\nFormat profile                           : Layer 3\nCodec ID                                 : 69\nDuration                                 : 1h 19mn\nBit rate mode                            : Variable\nBit rate                                 : 155 Kbps\nMaximum bit rate                         : 210 Kbps\nChannel(s)                               : 2 channels\nSampling rate                            : 48.0 KHz\nCompression mode                         : Lossy\nDelay relative to video                  : 160ms\nStream size                              : 88.7 MiB (16%)\nWriting library                          : LAME3.98\nLanguage                                 : English\nEncoded date                             : UTC 2014-04-23 14:36:13\nTagged date                              : UTC 2014-04-23 15:19:44","torrent":{"xt":"urn:btih:7eb3c548b68422a8b73baaeedfcb157101f167c4","amp;dn":"Bill+Bailey+Cosmic+Jam+DVDrip+x264+RB58.mp4","amp;tr":["udp%3A%2F%2Ftracker.openbittorrent.com%3A80","udp%3A%2F%2Fopen.demonii.com%3A1337","udp%3A%2F%2Ftracker.coppersurfer.tk%3A6969","udp%3A%2F%2Fexodus.desync.com%3A6969"],"infoHash":"7eb3c548b68422a8b73baaeedfcb157101f167c4","infoHashBuffer":{"type":"Buffer","data":[126,179,197,72,182,132,34,168,183,59,170,238,223,203,21,113,1,241,103,196]},"announce":[],"urlList":[]}}